<?xml version="1.0" encoding="UTF-8" standalone="no"?>
<svg
   viewBox="0 0 20 20"
   version="1.1"
   id="svg1"
   sodipodi:docname="crosshair.svg"
   width="20"
   height="20"
   inkscape:version="1.4 (86a8ad7, 2024-10-11)"
   xmlns:inkscape="http://www.inkscape.org/namespaces/inkscape"
   xmlns:sodipodi="http://sodipodi.sourceforge.net/DTD/sodipodi-0.dtd"
   xmlns="http://www.w3.org/2000/svg"
   xmlns:svg="http://www.w3.org/2000/svg">
  <defs
     id="defs1" />
  <sodipodi:namedview
     id="namedview1"
     pagecolor="#505050"
     bordercolor="#eeeeee"
     borderopacity="1"
     inkscape:showpageshadow="0"
     inkscape:pageopacity="0"
     inkscape:pagecheckerboard="0"
     inkscape:deskcolor="#505050"
     showgrid="false"
     inkscape:zoom="49.541667"
     inkscape:cx="10.001682"
     inkscape:cy="10.001682"
     inkscape:window-width="2560"
     inkscape:window-height="1369"
     inkscape:window-x="1912"
     inkscape:window-y="-8"
     inkscape:window-maximized="1"
     inkscape:current-layer="svg1" />
  <path
     d="M 19,9 H 17.93 A 8,8 0 0 0 11,2.07 V 1 A 1,1 0 0 0 9,1 V 2.07 A 8,8 0 0 0 2.07,9 H 1 a 1,1 0 0 0 0,2 H 2.07 A 8,8 0 0 0 9,17.93 V 19 a 1,1 0 0 0 2,0 V 17.93 A 8,8 0 0 0 17.93,11 H 19 a 1,1 0 0 0 0,-2 z m -4,2 h 0.91 A 6,6 0 0 1 11,15.91 V 15 a 1,1 0 0 0 -2,0 v 0.91 A 6,6 0 0 1 4.09,11 H 5 A 1,1 0 0 0 5,9 H 4.09 A 6,6 0 0 1 9,4.09 V 5 a 1,1 0 0 0 2,0 V 4.09 A 6,6 0 0 1 15.91,9 H 15 a 1,1 0 0 0 0,2 z M 10,9 a 1,1 0 1 0 1,1 1,1 0 0 0 -1,-1 z"
     id="path1" />
</svg>
